<?xml version="1.0" encoding="utf-8"?>
<!-- Generator: Adobe Illustrator 15.1.0, SVG Export Plug-In . SVG Version: 6.00 Build 0)  -->
<!DOCTYPE svg PUBLIC "-//W3C//DTD SVG 1.1//EN" "http://www.w3.org/Graphics/SVG/1.1/DTD/svg11.dtd">
<svg version="1.1" id="レイヤー_1" xmlns="http://www.w3.org/2000/svg" xmlns:xlink="http://www.w3.org/1999/xlink" x="0px"
	 y="0px" width="800px" height="600px" viewBox="0 0 800 600" enable-background="new 0 0 800 600" xml:space="preserve">
<polyline fill="none" stroke="#000000" stroke-miterlimit="10" points="84.5,309 237,309 252,250 270.438,350 288.874,250 
	307.31,350 325.743,250 344.175,350 362.611,250 381.049,350 399.482,250 417.92,350 436.357,250 454.795,350 473.23,250 
	491.67,350 510.111,250 528.557,350 547,250 557.75,309 714.5,309 "/>
<polyline fill="none" stroke="#000000" stroke-miterlimit="10" points="84.5,425.624 237,425.624 252,366.624 270.438,466.624 
	288.874,366.624 307.31,466.624 325.743,366.624 344.175,466.624 362.611,366.624 381.049,466.624 399.482,366.624 417.92,466.624 
	436.357,366.624 454.795,466.624 473.23,366.624 491.67,466.624 510.111,366.624 528.557,466.624 547,366.624 557.75,425.624 
	714.5,425.624 "/>
</svg>
